<svg width="32" height="32" viewBox="0 0 32 32" fill="none" xmlns="http://www.w3.org/2000/svg">
<rect width="32" height="32" rx="5" fill="#DBC4FF"/>
<path d="M10.6471 10H8M10.8588 10L12.7647 16.7947C12.9238 17.3305 13.2542 17.8018 13.707 18.1389C14.1599 18.476 14.7112 18.6611 15.2794 18.6667H22.9912V10H10.8588ZM16.8235 21.7C16.8235 22.418 16.231 23 15.5 23C14.769 23 14.1765 22.418 14.1765 21.7C14.1765 20.982 14.769 20.4 15.5 20.4C16.231 20.4 16.8235 20.982 16.8235 21.7ZM23 21.7C23 22.418 22.4074 23 21.6765 23C20.9455 23 20.3529 22.418 20.3529 21.7C20.3529 20.982 20.9455 20.4 21.6765 20.4C22.4074 20.4 23 20.982 23 21.7Z" stroke="#6D28D9" stroke-linecap="round" stroke-linejoin="round"/>
</svg>
